<svg xmlns="http://www.w3.org/2000/svg" viewBox="0 0 320 70" width="320" height="70">
  <defs>
    <linearGradient id="checkW" x1="0%" y1="0%" x2="100%" y2="100%">
      <stop offset="0%" style="stop-color:#5ee882;stop-opacity:1" />
      <stop offset="100%" style="stop-color:#20c997;stop-opacity:1" />
    </linearGradient>
  </defs>

  <!-- Escudo compacto -->
  <g transform="translate(6, 3)">
    <!-- Shield body -->
    <path d="M28,2 L52,10 C52,10 53,38 45,54 C39,66 28,74 28,74 C28,74 17,66 11,54 C3,38 4,10 4,10 Z"
          fill="rgba(255,255,255,0.95)" stroke="none"/>
    <!-- Car silhouette -->
    <g transform="translate(13, 22)" fill="rgba(19,48,77,0.8)">
      <path d="M4,13 L5,8 C6,6 7,5 9,4 L21,4 C23,5 24,6 25,8 L26,13
               L27,14 C28,15 28,16 28,17 L28,22 C28,23 27,24 26,24 L25,24 L25,22
               C25,21 24,20 22,20 C21,20 20,21 20,22 L20,24 L10,24 L10,22
               C10,21 9,20 8,20 C7,20 6,21 6,22 L6,24 L4,24 C3,24 2,23 2,22
               L2,17 C2,16 2,15 3,14 Z"/>
      <circle cx="8" cy="22" r="2.2" fill="rgba(19,48,77,0.85)" stroke="white" stroke-width="0.8"/>
      <circle cx="22" cy="22" r="2.2" fill="rgba(19,48,77,0.85)" stroke="white" stroke-width="0.8"/>
      <path d="M7,9 L9,6 L21,6 L23,9 Z" fill="rgba(19,48,77,0.4)"/>
    </g>
    <!-- Check badge -->
    <g transform="translate(38, 50)">
      <circle cx="8" cy="8" r="9.5" fill="rgba(19,48,77,0.6)"/>
      <circle cx="8" cy="8" r="8" fill="url(#checkW)"/>
      <path d="M4,8 L7,11 L12,5" fill="none" stroke="white" stroke-width="1.8" stroke-linecap="round" stroke-linejoin="round"/>
    </g>
  </g>

  <!-- Texto -->
  <g transform="translate(72, 0)">
    <!-- RTV PIOLI -->
    <text x="0" y="38" font-family="'Segoe UI', Arial, sans-serif" font-size="30" font-weight="800" letter-spacing="1.5" fill="white">
      RTV PIOLI
    </text>
    <!-- S.R.L -->
    <text x="180" y="38" font-family="'Segoe UI', Arial, sans-serif" font-size="11" font-weight="600" fill="rgba(255,255,255,0.55)">
      S.R.L
    </text>
    <!-- Linea divisora -->
    <rect x="0" y="44" width="120" height="1.5" rx="0.75" fill="rgba(255,255,255,0.3)"/>
    <rect x="124" y="44.5" width="4" height="0.5" rx="0.25" fill="rgba(255,255,255,0.2)"/>
    <rect x="130" y="44.5" width="4" height="0.5" rx="0.25" fill="rgba(255,255,255,0.15)"/>
    <!-- Subtitle -->
    <text x="0" y="58" font-family="'Segoe UI', Arial, sans-serif" font-size="9.5" font-weight="500" letter-spacing="2.5" fill="rgba(255,255,255,0.6)">
      REVISIÓN TÉCNICA OBLIGATORIA
    </text>
  </g>
</svg>
